<svg width="92" height="93" viewBox="0 0 92 93" fill="none" xmlns="http://www.w3.org/2000/svg">
<g id="navigation/empty">
<mask id="mask0_10497_39940" style="mask-type:alpha" maskUnits="userSpaceOnUse" x="0" y="0" width="92" height="93">
<rect id="Bounding box" y="0.5" width="92" height="92" fill="#D9D9D9"/>
</mask>
<g mask="url(#mask0_10497_39940)">
<path id="action_key" d="M81.5098 86.0127L70.2752 74.8739C69.1744 75.6258 67.9814 76.1959 66.6963 76.5842C65.4111 76.9724 64.0658 77.1666 62.6602 77.1666C58.7983 77.1666 55.4923 75.7929 52.7422 73.0456C49.9921 70.2984 48.617 66.9959 48.617 63.138C48.617 59.2802 49.9906 55.9789 52.7379 53.2341C55.4852 50.4894 58.7877 49.117 62.6456 49.117C66.5034 49.117 69.8046 50.4885 72.5494 53.2314C75.2942 55.9743 76.6666 59.2716 76.6666 63.1234C76.6666 64.5663 76.4626 65.9308 76.0547 67.217C75.6467 68.503 75.0668 69.6965 74.3149 70.7974L85.5126 81.973L81.5098 86.0127ZM21.6731 77.2034C17.8213 77.2034 14.524 75.831 11.7812 73.0863C9.03822 70.3415 7.66675 67.0206 7.66675 63.1234C7.66675 59.2716 9.03822 55.9743 11.7812 53.2314C14.524 50.4885 17.8213 49.117 21.6731 49.117C25.5703 49.117 28.8913 50.4885 31.636 53.2314C34.3807 55.9743 35.7531 59.2716 35.7531 63.1234C35.7531 67.0206 34.3807 70.3415 31.636 73.0863C28.8913 75.831 25.5703 77.2034 21.6731 77.2034ZM21.6731 71.4536C24.0026 71.4536 25.9733 70.6476 27.5853 69.0356C29.1973 67.4236 30.0033 65.4529 30.0033 63.1234C30.0033 60.8528 29.1973 58.9091 27.5853 57.2923C25.9733 55.6754 24.0026 54.8669 21.6731 54.8669C19.4026 54.8669 17.4589 55.6754 15.842 57.2923C14.2251 58.9091 13.4167 60.8528 13.4167 63.1234C13.4167 65.4529 14.2251 67.4236 15.842 69.0356C17.4589 70.6476 19.4026 71.4536 21.6731 71.4536ZM62.6602 71.4536C64.9307 71.4536 66.8744 70.6476 68.4913 69.0356C70.1082 67.4236 70.9167 65.4529 70.9167 63.1234C70.9167 60.8528 70.1082 58.9091 68.4913 57.2923C66.8744 55.6754 64.9307 54.8669 62.6602 54.8669C60.3307 54.8669 58.36 55.6754 56.748 57.2923C55.136 58.9091 54.33 60.8528 54.33 63.1234C54.33 65.4529 55.136 67.4236 56.748 69.0356C58.36 70.6476 60.3307 71.4536 62.6602 71.4536ZM21.6731 36.29C17.8213 36.29 14.524 34.9177 11.7812 32.1729C9.03822 29.4282 7.66675 26.1072 7.66675 22.21C7.66675 18.3583 9.03822 15.0609 11.7812 12.318C14.524 9.5751 17.8213 8.20366 21.6731 8.20366C25.5703 8.20366 28.8913 9.5751 31.636 12.318C34.3807 15.0609 35.7531 18.3583 35.7531 22.21C35.7531 26.1072 34.3807 29.4282 31.636 32.1729C28.8913 34.9177 25.5703 36.29 21.6731 36.29ZM62.6602 36.29C58.763 36.29 55.442 34.9177 52.6973 32.1729C49.9526 29.4282 48.5802 26.1072 48.5802 22.21C48.5802 18.3583 49.9526 15.0609 52.6973 12.318C55.442 9.5751 58.763 8.20366 62.6602 8.20366C66.512 8.20366 69.8093 9.5751 72.5521 12.318C75.2951 15.0609 76.6666 18.3583 76.6666 22.21C76.6666 26.1072 75.2951 29.4282 72.5521 32.1729C69.8093 34.9177 66.512 36.29 62.6602 36.29ZM21.6731 30.5402C24.0026 30.5402 25.9733 29.7342 27.5853 28.1222C29.1973 26.5103 30.0033 24.5395 30.0033 22.21C30.0033 19.9394 29.1973 17.9957 27.5853 16.3789C25.9733 14.762 24.0026 13.9536 21.6731 13.9536C19.4026 13.9536 17.4589 14.762 15.842 16.3789C14.2251 17.9957 13.4167 19.9394 13.4167 22.21C13.4167 24.5395 14.2251 26.5103 15.842 28.1222C17.4589 29.7342 19.4026 30.5402 21.6731 30.5402ZM62.6602 30.5402C64.9307 30.5402 66.8744 29.7342 68.4913 28.1222C70.1082 26.5103 70.9167 24.5395 70.9167 22.21C70.9167 19.9394 70.1082 17.9957 68.4913 16.3789C66.8744 14.762 64.9307 13.9536 62.6602 13.9536C60.3307 13.9536 58.36 14.762 56.748 16.3789C55.136 17.9957 54.33 19.9394 54.33 22.21C54.33 24.5395 55.136 26.5103 56.748 28.1222C58.36 29.7342 60.3307 30.5402 62.6602 30.5402Z" fill="#666CFF"/>
</g>
</g>
</svg>
